<svg xmlns="http://www.w3.org/2000/svg" width="76" viewBox="0 0 71.72 71.72">
  <g>
    <path d="M2422.8,1343.77a35.86,35.86,0,1,1,35.86-35.86A35.9,35.9,0,0,1,2422.8,1343.77Zm0-69.73a33.87,33.87,0,1,0,33.87,33.87A33.91,33.91,0,0,0,2422.8,1274Z" transform="translate(-2386.95 -1272.05)" fill="#a37634"/>
    <path d="M2404.48,1291.48v0.7c0,9.25,1.51,22.17,9,31.23,4.51,5.48,9,6.93,9.14,7l0.21,0.07,0.2-.07c0.19-.06,4.66-1.5,9.17-7,7.45-9.06,9-22,9-31.23v-0.7l-0.65,0c-0.11,0-10.88-.39-17.21-5.71l-0.46-.39-0.45.39c-6.33,5.32-17.13,5.71-17.24,5.71Zm18.32,34.9h0Zm-15-31.78s9.41-.28,15-5h0V1308h13.51c-3.78,15.35-13.51,18.38-13.51,18.38V1308h-13.51l-0.06-.23A56.23,56.23,0,0,1,2407.81,1294.6Z" transform="translate(-2386.95 -1272.05)" fill="#a37634"/>
  </g>
</svg>
