<svg xmlns="http://www.w3.org/2000/svg" width="80" viewBox="0 0 75.46 75.46">
  <g>
    <path d="M2171.36,1307.48a8.44,8.44,0,0,1-.76,3.57,9.18,9.18,0,0,1-2.09,2.9,9.85,9.85,0,0,1-3.11,2,10.19,10.19,0,0,1-3.82.71,9.35,9.35,0,0,1-4-.87,9.13,9.13,0,0,1-3.14-2.43,11.43,11.43,0,0,1-2-3.72,14.8,14.8,0,0,1-.73-4.77,17.61,17.61,0,0,1,1-5.83,16.18,16.18,0,0,1,2.58-4.79,12.49,12.49,0,0,1,3.8-3.24,9.55,9.55,0,0,1,4.65-1.19,10.79,10.79,0,0,1,2.55.29,7.56,7.56,0,0,1,2.06.8,4.51,4.51,0,0,1,1.38,1.21,2.51,2.51,0,0,1,.51,1.51,2,2,0,0,1-.61,1.55,2.32,2.32,0,0,1-1.63.56,1.83,1.83,0,0,1-1.12-.31,2.92,2.92,0,0,1-.7-0.75,7,7,0,0,1-.53-1,4.42,4.42,0,0,0-.59-1,3.09,3.09,0,0,0-.9-0.75,3,3,0,0,0-1.46-.31,3.33,3.33,0,0,0-2.07.73,6.27,6.27,0,0,0-1.65,2,12,12,0,0,0-1.1,3,16.47,16.47,0,0,0-.41,3.77l0.1,0.07a7.37,7.37,0,0,1,2.29-1.8,6.5,6.5,0,0,1,2.84-.58,9.08,9.08,0,0,1,3.48.66A8.5,8.5,0,0,1,2171.36,1307.48Zm-14.1-.82a12.71,12.71,0,0,0,1.14,6,3.6,3.6,0,0,0,3.31,2,3.41,3.41,0,0,0,3.16-1.73,11,11,0,0,0,1-5.4,10.48,10.48,0,0,0-1-5,3.08,3.08,0,0,0-2.84-1.72,3.92,3.92,0,0,0-2.62,1,10.12,10.12,0,0,0-2.21,3v1.83Z" transform="translate(-2136.54 -1272.05)" fill="#a37634"/>
    <path d="M2185.63,1289.78a9.51,9.51,0,0,1,4.4,1.05,11.4,11.4,0,0,1,3.58,2.89A14.29,14.29,0,0,1,2196,1298a15.63,15.63,0,0,1,.9,5.37,14.66,14.66,0,0,1-.9,5.16,13.79,13.79,0,0,1-2.43,4.2,11.51,11.51,0,0,1-3.58,2.82,9.63,9.63,0,0,1-4.4,1,9.35,9.35,0,0,1-4.33-1,11.43,11.43,0,0,1-3.53-2.82,13.7,13.7,0,0,1-2.4-4.2,14.89,14.89,0,0,1-.88-5.16,15.88,15.88,0,0,1,.88-5.37,14.21,14.21,0,0,1,2.4-4.31,11.33,11.33,0,0,1,3.53-2.89A9.24,9.24,0,0,1,2185.63,1289.78Zm0,24.87a4.51,4.51,0,0,0,2.19-.53,4.2,4.2,0,0,0,1.65-1.82,11.53,11.53,0,0,0,1-3.43,33.55,33.55,0,0,0,.36-5.37,37,37,0,0,0-.36-5.62,12.62,12.62,0,0,0-1-3.62,4.52,4.52,0,0,0-1.65-1.94,4.45,4.45,0,0,0-4.38,0,4.52,4.52,0,0,0-1.65,1.94,12.62,12.62,0,0,0-1,3.62,36.93,36.93,0,0,0-.36,5.62,33.49,33.49,0,0,0,.36,5.37,11.53,11.53,0,0,0,1,3.43,4.2,4.2,0,0,0,1.65,1.82A4.51,4.51,0,0,0,2185.63,1314.64Z" transform="translate(-2136.54 -1272.05)" fill="#a37634"/>
    <path d="M2174.26,1347.51a37.73,37.73,0,1,1,37.73-37.73A37.77,37.77,0,0,1,2174.26,1347.51Zm0-73.47a35.75,35.75,0,1,0,35.74,35.75A35.79,35.79,0,0,0,2174.26,1274Z" transform="translate(-2136.54 -1272.05)" fill="#a37634"/>
    <path d="M2160.72,1328.84q0,0.66,0,1a1.14,1.14,0,0,0,.17.57,0.67,0.67,0,0,0,.41.26,4.78,4.78,0,0,0,.74.09v0.63h-5v-0.63a5.23,5.23,0,0,0,.75-0.09,0.69,0.69,0,0,0,.42-0.25,1.16,1.16,0,0,0,.19-0.54,7.51,7.51,0,0,0,0-.95V1327q0-.89,0-1.49a4.11,4.11,0,0,0-.09-0.82,1.13,1.13,0,0,0-.12-0.32,0.49,0.49,0,0,0-.22-0.19,1.18,1.18,0,0,0-.38-0.09l-0.61,0v-0.53l3-.6,0.19,1.36h0.09a4.27,4.27,0,0,1,1.32-1.05,4.1,4.1,0,0,1,3.25,0,2.38,2.38,0,0,1,1,1H2166a4,4,0,0,1,1.35-1,3.9,3.9,0,0,1,1.68-.37,5.14,5.14,0,0,1,1.64.24,2.49,2.49,0,0,1,1.09.67,2.28,2.28,0,0,1,.46.94,6.82,6.82,0,0,1,.15,1.62v2.41q0,0.64,0,1a1.24,1.24,0,0,0,.18.58,0.66,0.66,0,0,0,.41.27,4.78,4.78,0,0,0,.74.09v0.63h-5v-0.63a3.58,3.58,0,0,0,.74-0.09,0.74,0.74,0,0,0,.42-0.27,1.08,1.08,0,0,0,.19-0.54,8.91,8.91,0,0,0,0-.94v-2.05a8.55,8.55,0,0,0-.09-1.38,2.66,2.66,0,0,0-.3-0.91,1.17,1.17,0,0,0-.54-0.49,2,2,0,0,0-.82-0.15,1.46,1.46,0,0,0-.9.27,2.17,2.17,0,0,0-.59.69,3.75,3.75,0,0,0-.41,1.83v2.07q0,0.64,0,1a1.19,1.19,0,0,0,.17.58,0.66,0.66,0,0,0,.42.27,5.06,5.06,0,0,0,.76.09v0.63h-5v-0.63a5,5,0,0,0,.74-0.09,0.72,0.72,0,0,0,.42-0.25,1.05,1.05,0,0,0,.19-0.54,9,9,0,0,0,0-.95v-2.05a8.61,8.61,0,0,0-.09-1.38,2.54,2.54,0,0,0-.31-0.91,1.21,1.21,0,0,0-.56-0.49,2.18,2.18,0,0,0-.86-0.15,1.39,1.39,0,0,0-.85.25,1.93,1.93,0,0,0-.56.67,3.36,3.36,0,0,0-.31.86,4.55,4.55,0,0,0-.11,1v2.07Z" transform="translate(-2136.54 -1272.05)" fill="#a37634"/>
    <path d="M2178,1328.85a8.46,8.46,0,0,0,0,1,1.31,1.31,0,0,0,.19.58,0.69,0.69,0,0,0,.41.27,3.38,3.38,0,0,0,.72.09v0.63h-4.94v-0.63a2.75,2.75,0,0,0,.71-0.1,0.83,0.83,0,0,0,.42-0.28,1.21,1.21,0,0,0,.2-0.55,6.1,6.1,0,0,0,.05-0.9V1327q0-.91,0-1.5a6.25,6.25,0,0,0-.08-0.81,0.67,0.67,0,0,0-.35-0.52,2.69,2.69,0,0,0-1-.13v-0.53l3.64-.6v5.9Zm-2.3-9.22a1.18,1.18,0,0,1,.35-0.87,1.17,1.17,0,0,1,.85-0.35,1.2,1.2,0,0,1,1.22,1.22,1.16,1.16,0,0,1-.35.85,1.18,1.18,0,0,1-.87.35A1.2,1.2,0,0,1,2175.74,1319.63Z" transform="translate(-2136.54 -1272.05)" fill="#a37634"/>
    <path d="M2183.7,1328.87a10.09,10.09,0,0,0,0,1,1.24,1.24,0,0,0,.17.56,0.64,0.64,0,0,0,.41.26,5,5,0,0,0,.74.09v0.63h-4.94v-0.63a4.94,4.94,0,0,0,.73-0.09,0.72,0.72,0,0,0,.42-0.25,1.09,1.09,0,0,0,.2-0.53,7.31,7.31,0,0,0,0-.94v-2q0-.92,0-1.5a5.6,5.6,0,0,0-.08-0.78,1.22,1.22,0,0,0-.13-0.34,0.51,0.51,0,0,0-.24-0.2,1.27,1.27,0,0,0-.39-0.09l-0.6,0v-0.53l3-.6,0.2,1.38h0.06a3.67,3.67,0,0,1,1.22-1,3.36,3.36,0,0,1,1.55-.36,4.05,4.05,0,0,1,1.62.27,2.83,2.83,0,0,1,1.11.92,3.61,3.61,0,0,1,.47.93,4.85,4.85,0,0,1,.2,1.58v2.21a10.09,10.09,0,0,0,0,1,1.24,1.24,0,0,0,.17.56,0.63,0.63,0,0,0,.4.26,4.71,4.71,0,0,0,.72.09v0.63H2186v-0.63a3.58,3.58,0,0,0,.74-0.09,0.72,0.72,0,0,0,.42-0.26,1.16,1.16,0,0,0,.19-0.54,7.44,7.44,0,0,0,0-.93v-2.13a8.14,8.14,0,0,0-.09-1.35,2.45,2.45,0,0,0-.31-0.89,1.22,1.22,0,0,0-.56-0.49,2.18,2.18,0,0,0-.86-0.15,1.36,1.36,0,0,0-.86.28,2.41,2.41,0,0,0-.63.78,3.27,3.27,0,0,0-.24.73,4.17,4.17,0,0,0-.1.93v2.16Z" transform="translate(-2136.54 -1272.05)" fill="#a37634"/>
  </g>
</svg>
