<svg xmlns="http://www.w3.org/2000/svg" width="76" viewBox="0 0 75.46 75.46">
  <g>
    <path d="M1899.42,1301.34q-1.39,0-2.28.07a4.85,4.85,0,0,0-1.43.29,1.9,1.9,0,0,0-.85.65,6.45,6.45,0,0,0-.61,1.1l-0.58,1.32h-1.36l2.51-9.51h1.43l-0.12.54a2.12,2.12,0,0,0-.05.44,0.82,0.82,0,0,0,.58.83,6.89,6.89,0,0,0,2.14.22h10.8v1.36q-1.29,2.65-2.23,4.6t-1.65,3.52q-0.71,1.56-1.29,2.94t-1.14,2.89q-0.56,1.51-1.21,3.31t-1.46,4.25a7.62,7.62,0,0,1-1.49,2.8,2.7,2.7,0,0,1-2,.83,2.2,2.2,0,0,1-1.6-.56,2.1,2.1,0,0,1-.58-1.58,4,4,0,0,1,.12-0.93,6.72,6.72,0,0,1,.51-1.29q0.39-.8,1.14-2.07t2-3.31q1.53-2.51,2.53-4.2t1.75-3q0.75-1.34,1.39-2.58l1.49-2.9h-6.45Z" transform="translate(-1879.11 -1272.05)" fill="#a37634"/>
    <path d="M1911.61,1323.45h-2.41l12.6-26.16h2.07Z" transform="translate(-1879.11 -1272.05)" fill="#a37634"/>
    <path d="M1932.37,1301.34q-1.39,0-2.28.07a4.85,4.85,0,0,0-1.43.29,1.9,1.9,0,0,0-.85.65,6.45,6.45,0,0,0-.61,1.1l-0.58,1.32h-1.36l2.51-9.51h1.43l-0.12.54a2.12,2.12,0,0,0-.05.44,0.82,0.82,0,0,0,.58.83,6.89,6.89,0,0,0,2.14.22h10.8v1.36q-1.29,2.65-2.23,4.6t-1.65,3.52q-0.71,1.56-1.29,2.94t-1.14,2.89q-0.56,1.51-1.21,3.31t-1.46,4.25a7.62,7.62,0,0,1-1.49,2.8,2.7,2.7,0,0,1-2,.83,2.2,2.2,0,0,1-1.6-.56,2.1,2.1,0,0,1-.58-1.58,4,4,0,0,1,.12-0.93,6.72,6.72,0,0,1,.51-1.29q0.39-.8,1.14-2.07t2-3.31q1.53-2.51,2.53-4.2t1.75-3q0.75-1.34,1.39-2.58l1.49-2.9h-6.45Z" transform="translate(-1879.11 -1272.05)" fill="#a37634"/>
    <path d="M1916.84,1347.51a37.73,37.73,0,1,1,37.73-37.73A37.77,37.77,0,0,1,1916.84,1347.51Zm0-73.47a35.75,35.75,0,1,0,35.75,35.75A35.79,35.79,0,0,0,1916.84,1274Z" transform="translate(-1879.11 -1272.05)" fill="#a37634"/>
  </g>
</svg>
